<svg height="24" viewBox="0 0 24 24" width="24" xmlns="http://www.w3.org/2000/svg"><path d="m12 2c5.4292399 0 9.8479317 4.32667079 9.9961582 9.7200952l.0038418.2799048v1c0 2.1729208-1.522566 4-3.5 4-1.1730609 0-2.1860471-.6429756-2.8160618-1.6196976-.9133452.9954799-2.2257448 1.6196976-3.6839382 1.6196976-2.76142375 0-5-2.2385763-5-5 0-2.76142375 2.23857625-5 5-5 2.6887547 0 4.8818181 2.12230671 4.9953805 4.7831104l.0046195.2168896v1c0 1.1407877.7160103 2 1.5 2 .7447902 0 1.428229-.7754391 1.4947109-1.8310659l.0052891-.1689341v-1c0-4.418278-3.581722-8-8-8s-8 3.581722-8 8 3.581722 8 8 8c1.1630948 0 2.2892822-.2477382 3.3225159-.7201669.5022717-.2296554 1.0956158-.0086561 1.3252711.4936156.2296553.5022718.008656 1.0956159-.4936157 1.3252712-1.2929533.5911811-2.702625.9012801-4.1541713.9012801-5.5228475 0-10-4.4771525-10-10s4.4771525-10 10-10zm0 7c-1.6568542 0-3 1.3431458-3 3s1.3431458 3 3 3 3-1.3431458 3-3-1.3431458-3-3-3z"/></svg>