<svg xmlns="http://www.w3.org/2000/svg" xmlns:xlink="http://www.w3.org/1999/xlink" viewBox="0,0,256,256" width="50px" height="50px" fill-rule="nonzero"><g fill="#ffffff" fill-rule="nonzero" stroke="none" stroke-width="1" stroke-linecap="butt" stroke-linejoin="miter" stroke-miterlimit="10" stroke-dasharray="" stroke-dashoffset="0" font-family="none" font-weight="none" font-size="none" text-anchor="none" style="mix-blend-mode: normal"><g transform="scale(5.12,5.12)"><path d="M25,2c-12.682,0 -23,10.318 -23,23c0,12.682 10.318,23 23,23c12.683,0 23,-10.318 23,-23c0,-12.682 -10.317,-23 -23,-23zM34.973,29.535c2.237,1.986 2.702,2.695 2.778,2.816c0.927,1.47 -1.028,1.649 -1.028,1.649h-4.12c0,0 -1.003,0.011 -1.86,-0.557c-1.397,-0.915 -2.86,-2.689 -3.888,-2.381c-0.863,0.258 -0.855,1.424 -0.855,2.421c0,0.357 -0.307,0.517 -1,0.517c-0.693,0 -0.981,0 -1.288,0c-2.257,0 -4.706,-0.76 -7.149,-3.313c-3.456,-3.609 -6.487,-10.879 -6.487,-10.879c0,0 -0.179,-0.366 0.016,-0.589c0.221,-0.25 0.822,-0.218 0.822,-0.218l3.995,-0.001c0,0 0.376,0.071 0.646,0.261c0.223,0.156 0.347,0.454 0.347,0.454c0,0 0.671,2.216 1.526,3.629c1.67,2.758 2.447,2.828 3.014,2.531c0.828,-0.43 0.558,-3.362 0.558,-3.362c0,0 0.037,-1.259 -0.395,-1.82c-0.333,-0.434 -0.97,-0.665 -1.248,-0.701c-0.225,-0.029 0.151,-0.423 0.63,-0.648c0.64,-0.285 1.511,-0.358 3.013,-0.344c1.169,0.011 1.506,0.081 1.962,0.186c1.379,0.318 1.038,1.157 1.038,4.103c0,0.944 -0.13,2.271 0.582,2.711c0.307,0.19 1.359,0.422 3.231,-2.618c0.889,-1.442 1.596,-3.834 1.596,-3.834c0,0 0.146,-0.263 0.373,-0.393c0.232,-0.133 0.225,-0.13 0.543,-0.13c0.318,0 3.507,-0.025 4.207,-0.025c0.699,0 1.355,-0.008 1.468,0.402c0.162,0.589 -0.516,2.607 -2.234,4.797c-2.823,3.594 -3.136,3.258 -0.793,5.336z"></path></g></g></svg>